<?xml version="1.0" standalone="no"?><!DOCTYPE svg PUBLIC "-//W3C//DTD SVG 1.1//EN" "http://www.w3.org/Graphics/SVG/1.1/DTD/svg11.dtd"><svg t="1699614459732" class="icon" viewBox="0 0 1024 1024" version="1.1" xmlns="http://www.w3.org/2000/svg" p-id="7579" xmlns:xlink="http://www.w3.org/1999/xlink" width="200" height="200"><path d="M548 976c-192 0-348-156-348-348 0-140 84-264 212-320 20-8 44 0 52 20 8 20 0 44-20 52-100 40-164 140-164 248 0 148 120 268 268 268s268-120 268-268c0-112-68-212-172-252C620 372 612 348 620 328s32-32 52-24C808 356 900 484 900 628 896 820 740 976 548 976z" fill="#f4ea2a" p-id="7580"></path><path d="M636 336" fill="#f4ea2a" p-id="7581"></path><path d="M456 336" p-id="7582" fill="#f4ea2a"></path><path d="M548 592c-24 0-40-16-40-40l0-340c0-24 16-40 40-40s40 16 40 40l0 340C588 576 572 592 548 592z" p-id="7583" fill="#f4ea2a"></path></svg>