<?xml version="1.0" standalone="no"?><!DOCTYPE svg PUBLIC "-//W3C//DTD SVG 1.1//EN" "http://www.w3.org/Graphics/SVG/1.1/DTD/svg11.dtd"><svg t="1699624661619" class="icon" viewBox="0 0 1024 1024" version="1.1" xmlns="http://www.w3.org/2000/svg" p-id="13140" xmlns:xlink="http://www.w3.org/1999/xlink" width="32" height="32"><path d="M511.22714228 459.8727798m-196.04146526 0a196.04146527 196.04146527 0 1 0 392.08293051 0 196.04146527 196.04146527 0 1 0-392.08293051 0Z" fill="#000000" p-id="13141"></path><path d="M511.22714228 761.4093255c-159.39173807 0-304.60763826-88.55322541-388.42202549-236.86055653l-6.69132089-11.83692634 6.69132089-11.83692632c83.8143872-148.3073311 229.00994906-236.84021818 388.42202549-236.84021817s304.60763826 88.53288706 388.42202545 236.84021817l6.69132091 11.83692632-6.69132091 11.83692634c-83.83472557 148.3073311-229.0302874 236.86055652-388.42202545 236.86055653z m-339.65063491-248.67714449c76.04513316 125.87411853 202.08195859 200.61759657 339.65063491 200.61759656s263.60550175-74.72313969 339.63029654-200.61759656c-76.04513316-125.87411853-202.06162023-200.59725822-339.63029654-200.5972582-137.56867632 0-263.60550175 74.70280133-339.65063491 200.5972582z" fill="#000000" p-id="13142"></path><path d="M387.54956678 482.99749669c-1.17962494 0-2.35924991-0.08135343-3.53887489-0.24406035-13.13858144-1.93214433-22.20949061-14.15549951-20.2773463-27.29408096 10.16918069-68.86569159 62.80485991-124.57246341 130.97904724-138.58559439 12.99621291-2.6846637 25.72802714 5.69474118 28.39235248 18.69095412 2.6846637 12.99621291-5.69474118 25.70768877-18.71129248 28.39235246-48.4459768 9.98613542-85.86856172 49.56458668-93.10901834 98.51902249-1.74909907 11.93861812-12.01997156 20.52140662-23.73486771 20.52140663z" fill="#FFFFFF" p-id="13143"></path></svg>